<svg width="85" height="84" viewBox="0 0 85 84" fill="none" xmlns="http://www.w3.org/2000/svg">
<path d="M26.8783 74.9033L27.8754 75.2534C27.8337 75.5609 27.8485 75.8491 27.9197 76.118C27.9882 76.3859 28.1011 76.6303 28.2584 76.8512C28.4121 77.0737 28.6018 77.2668 28.8274 77.4303C29.053 77.5938 29.3025 77.7236 29.576 77.8195C30.0745 77.9946 30.5704 78.0272 31.0636 77.9173C31.5542 77.8065 32.0048 77.5477 32.4156 77.1409C32.8237 76.7332 33.1529 76.1728 33.4033 75.4598C33.6536 74.7468 33.7469 74.1036 33.6832 73.5303C33.6169 72.956 33.4269 72.4723 33.1133 72.0791C32.797 71.6851 32.3895 71.4005 31.891 71.2255C31.6176 71.1295 31.3417 71.0748 31.0634 71.0614C30.7851 71.048 30.5168 71.0788 30.2587 71.1537C29.9969 71.2304 29.7555 71.3519 29.5345 71.5182C29.3099 71.6863 29.1183 71.902 28.9596 72.1655L27.9624 71.8154C28.1852 71.4209 28.4541 71.0923 28.7692 70.8295C29.0842 70.5668 29.4301 70.3706 29.8068 70.2409C30.1826 70.1139 30.5753 70.0545 30.9849 70.0628C31.3918 70.0702 31.803 70.1468 32.2185 70.2927C32.9208 70.5392 33.4851 70.93 33.9115 71.4651C34.3378 72.0002 34.5968 72.6391 34.6883 73.3818C34.7798 74.1245 34.6731 74.9301 34.3682 75.7986C34.0633 76.6671 33.643 77.3626 33.1073 77.8851C32.5716 78.4076 31.9701 78.7444 31.3028 78.8955C30.6356 79.0466 29.9508 78.9989 29.2485 78.7524C28.833 78.6065 28.4641 78.4093 28.1419 78.1607C27.8171 77.9111 27.5481 77.618 27.3351 77.2813C27.1212 76.9472 26.9734 76.5792 26.8918 76.1772C26.8091 75.7778 26.8047 75.3532 26.8783 74.9033Z" fill="black"/>
<path d="M17.2961 71.804L22.8254 65.0518L23.6035 65.6889L18.0742 72.4411L17.2961 71.804Z" fill="black"/>
<path d="M18.2732 60.2704L12.9889 64.1329L12.3954 63.321L17.6798 59.4585L18.2732 60.2704ZM11.8064 64.3638C11.9221 64.522 11.9679 64.6979 11.9439 64.8914C11.9183 65.0826 11.8298 65.2335 11.6784 65.3441C11.527 65.4548 11.3564 65.4933 11.1664 65.4597C10.9748 65.4238 10.8212 65.3267 10.7055 65.1685C10.5898 65.0102 10.5448 64.8355 10.5705 64.6443C10.5944 64.4509 10.6821 64.2988 10.8335 64.1882C10.9849 64.0775 11.1564 64.0401 11.348 64.076C11.5379 64.1096 11.6907 64.2055 11.8064 64.3638Z" fill="black"/>
<path d="M13.7176 51.24C13.9073 51.8236 13.9329 52.3709 13.7944 52.882C13.6558 53.393 13.3816 53.8406 12.9718 54.2248C12.562 54.609 12.0464 54.9021 11.425 55.1041C10.7928 55.3097 10.1971 55.3749 9.63799 55.2998C9.07527 55.2229 8.58939 55.0194 8.18036 54.6893C7.76776 54.3575 7.4701 53.9106 7.28739 53.3486C7.14509 52.9109 7.09789 52.4901 7.1458 52.0862C7.19371 51.6823 7.3271 51.3208 7.54598 51.0017C7.76485 50.6825 8.06003 50.4327 8.4315 50.2522L8.74246 51.2086C8.4825 51.3738 8.28395 51.6176 8.1468 51.94C8.00608 52.2606 8.00423 52.6316 8.14126 53.0531C8.26248 53.4259 8.46603 53.7212 8.75191 53.9389C9.0342 54.1548 9.37644 54.284 9.77861 54.3265C10.1772 54.3672 10.6115 54.3111 11.0816 54.1583C11.5625 54.0019 11.9567 53.7901 12.2641 53.5229C12.5707 53.2529 12.7773 52.9468 12.8841 52.6044C12.99 52.2593 12.9814 51.8976 12.8584 51.5194C12.7776 51.2708 12.661 51.0593 12.5087 50.8847C12.3564 50.7102 12.1763 50.5791 11.9685 50.4913C11.7607 50.4035 11.5337 50.3668 11.2875 50.3811L10.9765 49.4247C11.3615 49.3593 11.7359 49.3854 12.0998 49.5031C12.4601 49.619 12.7834 49.8231 13.0696 50.1154C13.3522 50.4059 13.5682 50.7807 13.7176 51.24Z" fill="black"/>
<path d="M9.71505 41.566L8.47231 41.5011L8.48577 41.297L5.76573 38.2478L5.84761 37.0062L8.72539 40.2537L8.71978 40.3387L9.71505 41.566ZM12.0346 42.6585L3.3262 42.0842L3.39237 41.0807L12.1007 41.655L12.0346 42.6585ZM12.3082 38.5084L8.90837 40.8466L8.25812 40.0862L12.3923 37.2328L12.3082 38.5084Z" fill="black"/>
<path d="M11.8551 17.4967L12.7551 16.613L19.9468 19.7043L20.0198 19.6327L17.0608 12.3855L17.9608 11.5018L24.0752 17.7292L23.3697 18.4218L18.7243 13.6905L18.6634 13.7502L21.3628 20.3923L20.6817 21.061L14.0902 18.2404L14.0294 18.3001L18.6748 23.0315L17.9694 23.7241L11.8551 17.4967Z" fill="black"/>
<path d="M32.5845 13.7234C31.9883 13.9293 31.4287 13.9754 30.9055 13.8617C30.384 13.7443 29.9243 13.4883 29.5265 13.0937C29.1305 12.6956 28.8229 12.1796 28.604 11.5459C28.385 10.9122 28.3075 10.3138 28.3715 9.75072C28.4371 9.18399 28.6312 8.69313 28.9537 8.27813C29.278 7.85951 29.7194 7.55372 30.2779 7.36074C30.6001 7.24941 30.9368 7.19318 31.2881 7.19203C31.6394 7.19089 31.9856 7.26662 32.3269 7.41922C32.6673 7.56913 32.9822 7.81501 33.2716 8.15684C33.561 8.49868 33.8055 8.95825 34.0049 9.53555L34.1441 9.93833L29.3753 11.586L29.0914 10.7644L32.8936 9.45066C32.773 9.10159 32.5955 8.81424 32.3613 8.5886C32.1297 8.36203 31.859 8.2136 31.5492 8.14331C31.242 8.0721 30.9166 8.09587 30.5729 8.21462C30.1943 8.34543 29.8992 8.5526 29.6875 8.83612C29.4777 9.11603 29.3504 9.43052 29.3057 9.7796C29.261 10.1287 29.2975 10.4737 29.4154 10.8147L29.6046 11.3625C29.7661 11.8297 29.9835 12.198 30.2568 12.4672C30.532 12.7328 30.8437 12.9001 31.1922 12.9691C31.5397 13.0354 31.9054 13.0022 32.2894 12.8695C32.5391 12.7832 32.7526 12.6704 32.9299 12.531C33.1089 12.388 33.2477 12.2198 33.3462 12.0265C33.4438 11.8304 33.4957 11.6111 33.5021 11.3685L34.5095 11.3089C34.5204 11.6538 34.4526 11.9838 34.306 12.299C34.1585 12.6114 33.9396 12.8914 33.6494 13.139C33.3583 13.3838 33.0033 13.5786 32.5845 13.7234Z" fill="black"/>
<path d="M58.3969 9.64296L57.4095 9.26637C57.4594 8.96008 57.4524 8.67159 57.3884 8.4009C57.327 8.13122 57.2207 7.88391 57.0693 7.65895C56.9216 7.43235 56.7372 7.23431 56.516 7.06483C56.2948 6.89534 56.0489 6.75897 55.7781 6.65571C55.2844 6.46741 54.7896 6.42159 54.2936 6.51824C53.8003 6.6159 53.3428 6.86256 52.9213 7.25822C52.5025 7.65489 52.1584 8.20626 51.8891 8.91234C51.6199 9.61841 51.5094 10.2589 51.5577 10.8337C51.6087 11.4096 51.7857 11.8982 52.0887 12.2996C52.3943 12.7019 52.794 12.9973 53.2877 13.1856C53.5585 13.2888 53.8328 13.3509 54.1107 13.3717C54.3885 13.3926 54.6575 13.3689 54.9176 13.3009C55.1813 13.2312 55.4258 13.1162 55.6512 12.9559C55.8802 12.7939 56.0775 12.5833 56.2432 12.3243L57.2307 12.7008C56.9974 13.0892 56.7198 13.4106 56.3978 13.6648C56.0759 13.919 55.7249 14.1059 55.3448 14.2255C54.9658 14.3424 54.5716 14.3913 54.1624 14.372C53.7559 14.3538 53.3469 14.2662 52.9354 14.1093C52.24 13.8441 51.6863 13.4383 51.2744 12.892C50.8625 12.3457 50.6207 11.7002 50.549 10.9553C50.4774 10.2104 50.6055 9.40792 50.9335 8.54789C51.2616 7.68786 51.7003 7.00385 52.2498 6.49585C52.7993 5.98785 53.4095 5.66723 54.0806 5.53399C54.7517 5.40074 55.435 5.46674 56.1304 5.73198C56.5419 5.88889 56.9053 6.09591 57.2207 6.35304C57.5388 6.61118 57.7998 6.9114 58.0038 7.25369C58.2087 7.59333 58.3466 7.96518 58.4175 8.36924C58.4894 8.77065 58.4825 9.19522 58.3969 9.64296Z" fill="black"/>
<path d="M67.8929 12.9972L62.1852 19.5993L61.4244 18.9415L67.1321 12.3395L67.8929 12.9972Z" fill="black"/>
<path d="M66.6079 24.5005L71.9936 20.7806L72.5651 21.6081L67.1794 25.328L66.6079 24.5005ZM73.1818 20.5814C73.0704 20.4201 73.0292 20.2431 73.0584 20.0503C73.0891 19.8599 73.1816 19.7114 73.3359 19.6048C73.4902 19.4983 73.6618 19.4643 73.8508 19.503C74.0414 19.544 74.1924 19.6451 74.3038 19.8064C74.4152 19.9677 74.4555 20.1436 74.4248 20.334C74.3956 20.5267 74.3039 20.6764 74.1497 20.783C73.9954 20.8895 73.8229 20.9223 73.6324 20.8813C73.4434 20.8426 73.2932 20.7427 73.1818 20.5814Z" fill="black"/>
<path d="M70.9211 33.6495C70.747 33.0611 70.7361 32.5133 70.8882 32.0061C71.0404 31.4989 71.3264 31.0588 71.7463 30.6857C72.1663 30.3126 72.6895 30.0334 73.3161 29.848C73.9536 29.6594 74.5508 29.6101 75.1077 29.7002C75.6682 29.7921 76.1484 30.0085 76.5485 30.3494C76.9521 30.6921 77.2377 31.1468 77.4053 31.7135C77.5359 32.1548 77.5718 32.5767 77.5131 32.9792C77.4544 33.3817 77.3114 33.7395 77.0841 34.0527C76.8568 34.3658 76.555 34.6077 76.1789 34.7782L75.8936 33.8138C76.1579 33.6557 76.3629 33.4173 76.5086 33.0986C76.6578 32.7819 76.6696 32.4111 76.5439 31.9861C76.4326 31.6102 76.2371 31.3095 75.9571 31.0843C75.6807 30.8609 75.342 30.7226 74.9411 30.6693C74.5438 30.618 74.1081 30.6625 73.6341 30.8027C73.1492 30.9462 72.7495 31.1473 72.435 31.4063C72.1214 31.6679 71.9066 31.9685 71.7907 32.3079C71.6757 32.6501 71.6746 33.0118 71.7874 33.3932C71.8615 33.6438 71.9724 33.8584 72.12 34.0369C72.2677 34.2155 72.4441 34.3514 72.6495 34.4447C72.8549 34.538 73.0808 34.5808 73.3274 34.573L73.6127 35.5374C73.2261 35.5925 72.8525 35.5564 72.4919 35.429C72.1348 35.3035 71.8171 35.0909 71.5388 34.7911C71.264 34.4931 71.0581 34.1126 70.9211 33.6495Z" fill="black"/>
<path d="M74.6635 43.4269L75.9041 43.525L75.8852 43.7286L78.5227 46.8494L78.4077 48.0884L75.6177 44.7652L75.6256 44.6803L74.6635 43.4269ZM72.374 42.2728L81.0639 43.0796L80.971 44.0809L72.281 43.2742L72.374 42.2728ZM71.9896 46.4141L75.4507 44.1676L76.0804 44.9451L71.8714 47.6871L71.9896 46.4141Z" fill="black"/>
<path d="M71.881 67.4302L70.9577 68.2896L63.8511 65.0072L63.7763 65.0769L66.5406 72.4005L65.6172 73.2599L59.6715 66.8713L60.3952 66.1978L64.9126 71.0516L64.975 70.9935L62.454 64.2817L63.1528 63.6314L69.6666 66.6271L69.7289 66.569L65.2116 61.7152L65.9353 61.0417L71.881 67.4302Z" fill="black"/>
<path d="M51.0585 70.6485C51.6599 70.4585 52.2205 70.4274 52.7406 70.5551C53.2587 70.6864 53.7113 70.9546 54.0985 71.3596C54.4838 71.7682 54.7774 72.2922 54.9793 72.9315C55.1813 73.5708 55.2427 74.1711 55.1638 74.7323C55.083 75.2971 54.8759 75.7826 54.5424 76.1888C54.2071 76.5986 53.7577 76.8925 53.1942 77.0705C52.8691 77.1732 52.531 77.2204 52.1798 77.2121C51.8286 77.2039 51.4845 77.1189 51.1474 76.9573C50.8112 76.7983 50.503 76.5441 50.2228 76.1947C49.9426 75.8452 49.7105 75.3793 49.5266 74.7968L49.3982 74.3905L54.2094 72.8708L54.4712 73.6998L50.6353 74.9114C50.7465 75.2636 50.9162 75.5556 51.1444 75.7874C51.3698 76.0201 51.6364 76.1757 51.9443 76.2542C52.2494 76.3336 52.5753 76.3185 52.9221 76.209C53.3041 76.0884 53.6046 75.8892 53.8237 75.6114C54.041 75.3372 54.1767 75.0262 54.2307 74.6785C54.2847 74.3307 54.2574 73.9848 54.1487 73.6408L53.9741 73.0881C53.8252 72.6168 53.6178 72.2429 53.3517 71.9664C53.0838 71.6935 52.7765 71.518 52.4301 71.4397C52.0844 71.3642 51.7179 71.3876 51.3306 71.5099C51.0786 71.5895 50.8622 71.6966 50.6813 71.8312C50.4985 71.9694 50.3553 72.1338 50.2516 72.3244C50.1488 72.5178 50.091 72.7357 50.0782 72.978L49.0696 73.0106C49.0679 72.6656 49.1445 72.3375 49.2995 72.0264C49.4553 71.718 49.6815 71.4439 49.9782 71.2042C50.2758 70.9672 50.6359 70.782 51.0585 70.6485Z" fill="black"/>
</svg>
