<?xml version="1.0" encoding="UTF-8" standalone="no"?>
<svg
   width="231.67186"
   zoomAndPan="magnify"
   viewBox="0 0 173.75389 89.984376"
   height="119.97917"
   preserveAspectRatio="xMidYMid"
   version="1.0"
   id="svg46"
   xmlns="http://www.w3.org/2000/svg"
   xmlns:svg="http://www.w3.org/2000/svg">
  <defs
     id="defs10">
    <clipPath
       id="05138033c0">
      <path
         d="m 107,142.33984 h 163 v 90 H 107 Z m 0,0"
         clip-rule="nonzero"
         id="path4" />
    </clipPath>
    <clipPath
       id="adcac562f6">
      <path
         d="M 100.23438,142.33984 H 274.98437 V 232 H 100.23438 Z m 0,0"
         clip-rule="nonzero"
         id="path7" />
    </clipPath>
  </defs>
  <g
     clip-path="url(#05138033c0)"
     id="g14"
     transform="translate(-100.35938,-142.33985)">
    <path
       fill="#000000"
       d="m 217.54687,143.39844 c 27.73438,0 47.31641,8.85156 51.10938,23.09765 2.74609,10.32422 -2.96875,22.24219 -16.09766,33.56641 -13.21093,11.39062 -32.3164,20.78516 -53.80078,26.44531 -13.33984,3.51563 -26.99219,5.375 -39.46484,5.375 -27.73438,0 -47.32031,-8.84765 -51.11328,-23.09765 -2.7461,-10.32422 2.96875,-22.24219 16.09765,-33.5625 13.21485,-11.39063 32.32032,-20.78516 53.80078,-26.44532 13.33985,-3.52343 26.98829,-5.3789 39.46875,-5.3789 m -0.004,-0.44141 c -12.19922,0 -25.71094,1.73438 -39.58203,5.39063 -44.55078,11.73437 -75.98438,38.84765 -70.21094,60.55078 3.97266,14.9414 24.55469,23.42578 51.53906,23.42578 12.19922,0 25.70703,-1.73828 39.58203,-5.39063 44.55078,-11.74218 75.98438,-38.85156 70.21094,-60.55078 -3.97656,-14.94531 -24.55469,-23.42969 -51.53906,-23.42578 z m 0,0"
       fill-opacity="1"
       fill-rule="nonzero"
       id="path12" />
  </g>
  <g
     clip-path="url(#adcac562f6)"
     id="g18"
     transform="translate(-100.35938,-142.33985)">
    <path
       fill="#000000"
       d="m 274.11328,155.05469 c -12.25,0.29297 -12.48437,0.53515 -12.77734,12.71875 -0.29297,-12.19141 -0.53516,-12.42578 -12.77735,-12.71875 12.2461,-0.28907 12.48438,-0.53125 12.77735,-12.71485 0.29297,12.19141 0.53515,12.42578 12.77734,12.71485 z m -148.19922,64.22265 c -12.24609,0.29297 -12.48437,0.53125 -12.77734,12.71875 -0.29297,-12.1914 -0.53125,-12.42578 -12.77734,-12.71875 12.25,-0.28906 12.48437,-0.53125 12.77734,-12.71484 0.29297,12.19141 0.53516,12.42578 12.77734,12.71484 z m 0,0"
       fill-opacity="1"
       fill-rule="nonzero"
       id="path16" />
  </g>
  <path
     stroke-linecap="butt"
     fill="none"
     stroke-linejoin="miter"
     d="m 83.859379,59.476575 -11.71874,-31.64846 -0.24219,0.20703 -0.0469,0.0156 -9.83204,7.46875 0.10936,0.28907 3.33203,-0.0469 2.57031,6.9375 c -0.76172,0.1211 -1.54297,0.35938 -2.40235,0.67969 -2.83984,1.05078 -11.46094,6.66797 -6.99219,18.73438 2.33984,6.32032 6.73047,10.15626 13.33203,8.57032 0.65234,-0.12109 2.32032,-3.77344 4.03516,-8.19531 l -0.0156,-0.0469 0.043,-0.0156 c 1.57812,4.82422 3.69141,5.44141 5.88281,4.62891 2.94923,-1.09374 3.70704,-5.31641 5.09376,-10.47266 l -0.28515,-0.16013 z m -18.75391,-5.43361 c -2.40624,-6.50781 -1.48047,-8.52734 0.31641,-9.19141 1.24219,-0.46093 2.93359,0.0469 4.54688,3.07813 l 5.28905,14.29298 c -0.45703,0.9375 -1.3789,1.64844 -2.05469,1.89453 -2.89844,1.07421 -5.52734,-3.13672 -8.09765,-10.07422 z m 42.988301,-17.53905 c -1.69142,-4.55859 -5.02734,-7.58204 -10.351561,-5.61329 -1.41406,0.52734 -2.875,3.59766 -4.37891,8.58985 l -6.31641,-17.0547 -0.28906,0.10936 -9.82032,7.46094 0.10544,0.28907 3.38281,-0.0625 11.12109,30.03517 -1.5,2.64844 0.10936,0.29297 12.781251,-4.7344 -0.10544,-0.28907 -2.921881,-1.01563 -6.01956,-16.2539 c 0.33985,-1.26172 0.96094,-2.35938 2.25,-2.83594 1.42579,-0.53125 2.875,-0.25 3.75391,2.12891 l 5.527361,14.91797 -1.54687,2.67187 0.10935,0.28907 12.76954,-4.73047 -0.10544,-0.28907 -2.86328,-1.03906 z m 15.32422,14.70704 c 2.42579,-0.89844 3.45313,-3.07422 2.59376,-5.39063 -0.84766,-2.28906 -3.03907,-3.25781 -5.46485,-2.35937 -2.51563,0.93358 -3.64063,3.1289 -2.79688,5.41797 0.85941,2.31639 3.14844,3.26562 5.66797,2.33203 z m 0,0"
     stroke="#000000"
     stroke-width="3.80074"
     stroke-opacity="1"
     stroke-miterlimit="4"
     id="path20" />
  <g
     fill="#f49911"
     fill-opacity="1"
     id="g28"
     transform="translate(-100.35938,-142.33985)">
    <g
       transform="translate(162.2915,215.98849)"
       id="g26">
      <g
         id="g24">
        <path
           d="m 21.929688,-14.171875 -11.71875,-31.648437 -0.25,0.203124 -0.046876,0.01563 -9.820312,7.472656 0.105469,0.285156 3.332031,-0.04297 2.570312,6.9375 c -0.765624,0.121094 -1.542968,0.355469 -2.398437,0.671875 -2.851563,1.054688 -11.46875,6.675782 -7,18.746094 2.339844,6.320312 6.730469,10.152344 13.332031,8.570312 0.652344,-0.132812 2.328125,-3.777343 4.042969,-8.195312 l -0.01953,-0.04687 0.05078,-0.01953 c 1.566406,4.824218 3.6875,5.441406 5.875,4.632812 2.945313,-1.089844 3.703125,-5.316406 5.089844,-10.476562 L 24.796875,-17.23046 Z M 3.171875,-19.597656 c -2.410156,-6.511719 -1.484375,-8.53125 0.320313,-9.199219 1.238281,-0.457031 2.9375,0.04687 4.542968,3.074219 l 5.296875,14.300781 c -0.46875,0.929687 -1.390625,1.648437 -2.054687,1.898437 -2.898438,1.070313 -5.539063,-3.136718 -8.105469,-10.074218 z m 0,0"
           id="path22" />
      </g>
    </g>
  </g>
  <g
     fill="#f49911"
     fill-opacity="1"
     id="g36"
     transform="translate(-100.35938,-142.33985)">
    <g
       transform="translate(189.65597,205.85579)"
       id="g34">
      <g
         id="g32">
        <path
           d="m 18.800781,-27.007812 c -1.691406,-4.5625 -5.027343,-7.59375 -10.351562,-5.621094 -1.425781,0.527344 -2.878907,3.605468 -4.382813,8.589844 L -2.25,-41.097656 l -0.285156,0.105468 -9.820313,7.476563 0.105469,0.285156 3.378906,-0.06641 L 2.25,-3.265625 0.75,-0.601562 0.855469,-0.316406 13.636719,-5.050781 13.53125,-5.335938 10.613281,-6.359375 4.59375,-22.613281 c 0.34375,-1.261719 0.964844,-2.355469 2.25,-2.828125 1.425781,-0.53125 2.875,-0.257813 3.753906,2.117187 L 16.125,-8.402344 14.578125,-5.722656 14.683594,-5.4375 27.464844,-10.167969 27.359375,-10.453125 24.488281,-11.5 Z m 0,0"
           id="path30" />
      </g>
    </g>
  </g>
  <g
     fill="#f49911"
     fill-opacity="1"
     id="g44"
     transform="translate(-100.35938,-142.33985)">
    <g
       transform="translate(217.59054,195.51198)"
       id="g42">
      <g
         id="g40">
        <path
           d="m 6.1875,-1.96875 c 2.421875,-0.894531 3.457031,-3.0625 2.597656,-5.390625 -0.847656,-2.28125 -3.042968,-3.25 -5.464844,-2.351563 -2.519531,0.929688 -3.648437,3.132813 -2.804687,5.414063 0.863281,2.328125 3.152344,3.261719 5.671875,2.328125 z m 0,0"
           id="path38" />
      </g>
    </g>
  </g>
</svg>
